<svg viewBox="0 0 680 200" xmlns="http://www.w3.org/2000/svg">
  <defs>
    <marker id="arrow" viewBox="0 0 10 10" refX="8" refY="5" markerWidth="6" markerHeight="6" orient="auto-start-reverse">
      <path d="M2 1L8 5L2 9" fill="none" stroke="context-stroke" stroke-width="1.5" stroke-linecap="round" stroke-linejoin="round"/>
    </marker>
    <style>
      .th { font-family: Charter, Georgia, 'Times New Roman', serif; font-size: 16px; font-weight: 700; }
      .ts { font-family: Charter, Georgia, 'Times New Roman', serif; font-size: 12px; font-style: italic; }
    </style>
  </defs>

  <rect x="200" y="20" width="280" height="56" rx="4" fill="#ffffff" stroke="#dddddd" stroke-width="1"/>
  <text class="th" x="340" y="42" text-anchor="middle" dominant-baseline="central" fill="#000000">Golden dataset</text>
  <text class="ts" x="340" y="62" text-anchor="middle" dominant-baseline="central" fill="#767676">Vetted by domain expert</text>

  <line x1="340" y1="76" x2="340" y2="110" stroke="#828282" stroke-width="1.5"/>
  <line x1="106" y1="110" x2="574" y2="110" stroke="#828282" stroke-width="1.5"/>
  <line x1="106" y1="110" x2="106" y2="136" stroke="#828282" stroke-width="1.5" marker-end="url(#arrow)"/>
  <line x1="262" y1="110" x2="262" y2="136" stroke="#828282" stroke-width="1.5" marker-end="url(#arrow)"/>
  <line x1="418" y1="110" x2="418" y2="136" stroke="#828282" stroke-width="1.5" marker-end="url(#arrow)"/>
  <line x1="574" y1="110" x2="574" y2="136" stroke="#828282" stroke-width="1.5" marker-end="url(#arrow)"/>

  <rect x="36" y="140" width="140" height="40" rx="4" fill="#ffffff" stroke="#dddddd" stroke-width="1"/>
  <text class="th" x="106" y="160" text-anchor="middle" dominant-baseline="central" fill="#000000">PAN</text>

  <rect x="192" y="140" width="140" height="40" rx="4" fill="#ffffff" stroke="#dddddd" stroke-width="1"/>
  <text class="th" x="262" y="160" text-anchor="middle" dominant-baseline="central" fill="#000000">Aadhaar</text>

  <rect x="348" y="140" width="140" height="40" rx="4" fill="#ffffff" stroke="#dddddd" stroke-width="1"/>
  <text class="th" x="418" y="160" text-anchor="middle" dominant-baseline="central" fill="#000000">DL</text>

  <rect x="504" y="140" width="140" height="40" rx="4" fill="#ffffff" stroke="#dddddd" stroke-width="1"/>
  <text class="th" x="574" y="160" text-anchor="middle" dominant-baseline="central" fill="#000000">RC</text>
</svg>
