<svg xmlns="http://www.w3.org/2000/svg" viewBox="0 0 820 1020" width="820" height="1020" font-family="-apple-system, BlinkMacSystemFont, 'Segoe UI', Helvetica, Arial, sans-serif">
  <defs>
    <linearGradient id="bar-tc" x1="0" y1="0" x2="1" y2="0"><stop offset="0%" stop-color="#378ADD"/><stop offset="100%" stop-color="#5BA3E8"/></linearGradient>
    <linearGradient id="bar-comp" x1="0" y1="0" x2="1" y2="0"><stop offset="0%" stop-color="#1D9E75"/><stop offset="100%" stop-color="#3BB893"/></linearGradient>
    <linearGradient id="bar-test" x1="0" y1="0" x2="1" y2="0"><stop offset="0%" stop-color="#7F77DD"/><stop offset="100%" stop-color="#9B94E6"/></linearGradient>
    <clipPath id="bar-clip"><rect x="40" y="96" width="740" height="36" rx="6"/></clipPath>
  </defs>

  <rect width="820" height="1020" fill="#FAFAF8" rx="12"/>

  <!-- Title -->
  <text x="40" y="48" font-size="22" font-weight="600" fill="#1a1a1a">GRPO reward breakdown</text>
  <text x="40" y="72" font-size="13" fill="#73726c">Graduated reward system for OCaml code generation across compilation stages</text>

  <!-- ═══ STACKED TOTAL BAR ═══ -->
  <rect x="40" y="96" width="740" height="36" rx="6" fill="#E8E8E4"/>
  <g clip-path="url(#bar-clip)">
    <rect x="40" y="96" width="180" height="36" fill="url(#bar-tc)"/>
    <rect x="220" y="96" width="94" height="36" fill="url(#bar-comp)"/>
    <rect x="314" y="96" width="466" height="36" fill="url(#bar-test)"/>
  </g>

  <text x="130" y="119" text-anchor="middle" font-size="12" font-weight="600" fill="#fff">Type check · 0.25</text>
  <text x="267" y="119" text-anchor="middle" font-size="11" font-weight="600" fill="#fff">Compile · 0.10</text>
  <text x="547" y="119" text-anchor="middle" font-size="12" font-weight="600" fill="#fff">Tests · 0.65</text>

  <!-- Legend row -->
  <rect x="40" y="144" width="10" height="10" rx="2" fill="#378ADD"/>
  <text x="56" y="153" font-size="11" fill="#73726c">Type check (25%)</text>
  <rect x="170" y="144" width="10" height="10" rx="2" fill="#1D9E75"/>
  <text x="186" y="153" font-size="11" fill="#73726c">Compilation (10%)</text>
  <rect x="310" y="144" width="10" height="10" rx="2" fill="#7F77DD"/>
  <text x="326" y="153" font-size="11" fill="#73726c">Tests (65%)</text>
  <rect x="430" y="144" width="10" height="10" rx="2" fill="#C4822A"/>
  <text x="446" y="153" font-size="11" fill="#73726c">Style penalty (up to −0.10)</text>
  <rect x="610" y="144" width="10" height="10" rx="2" fill="#C93B3B"/>
  <text x="626" y="153" font-size="11" fill="#73726c">Degenerate (zeroed)</text>

  <!-- ═══ STAGE 1: TYPE CHECK ═══ -->
  <rect x="40" y="180" width="240" height="310" rx="10" fill="#fff" stroke="#E0E0DC" stroke-width="0.75"/>
  <rect x="40" y="180" width="240" height="4" rx="2" fill="#378ADD"/>
  <text x="60" y="210" font-size="11" fill="#73726c" font-weight="500" letter-spacing="0.5">STAGE 1</text>
  <text x="60" y="232" font-size="16" font-weight="600" fill="#1a1a1a">Type check</text>
  <text x="60" y="250" font-size="12" fill="#73726c">Max score: 0.25</text>

  <!-- Graduated bars (card right=280, values right-aligned at 266) -->
  <text x="60" y="278" font-size="11" fill="#5A5A56">0 errors</text>
  <rect x="132" y="266" width="100" height="16" rx="3" fill="#E8E8E4"/>
  <rect x="132" y="266" width="100" height="16" rx="3" fill="#378ADD"/>
  <text x="266" y="278" text-anchor="end" font-size="11" font-weight="600" fill="#1a1a1a">0.25</text>

  <text x="60" y="302" font-size="11" fill="#5A5A56">1 error</text>
  <rect x="132" y="290" width="100" height="16" rx="3" fill="#E8E8E4"/>
  <rect x="132" y="290" width="80" height="16" rx="3" fill="#5BA3E8"/>
  <text x="266" y="302" text-anchor="end" font-size="11" font-weight="500" fill="#5A5A56">0.20</text>

  <text x="60" y="326" font-size="11" fill="#5A5A56">2 errors</text>
  <rect x="132" y="314" width="100" height="16" rx="3" fill="#E8E8E4"/>
  <rect x="132" y="314" width="60" height="16" rx="3" fill="#7AB8EE"/>
  <text x="266" y="326" text-anchor="end" font-size="11" font-weight="500" fill="#5A5A56">0.15</text>

  <text x="60" y="350" font-size="11" fill="#5A5A56">3 errors</text>
  <rect x="132" y="338" width="100" height="16" rx="3" fill="#E8E8E4"/>
  <rect x="132" y="338" width="40" height="16" rx="3" fill="#99CCF3"/>
  <text x="266" y="350" text-anchor="end" font-size="11" font-weight="500" fill="#5A5A56">0.10</text>

  <text x="60" y="374" font-size="11" fill="#5A5A56">5 errors</text>
  <rect x="132" y="362" width="100" height="16" rx="3" fill="#E8E8E4"/>
  <rect x="132" y="362" width="20" height="16" rx="3" fill="#B5D4F4"/>
  <text x="266" y="374" text-anchor="end" font-size="11" font-weight="500" fill="#5A5A56">0.05</text>

  <text x="60" y="398" font-size="11" fill="#5A5A56">7 errors</text>
  <rect x="132" y="386" width="100" height="16" rx="3" fill="#E8E8E4"/>
  <rect x="132" y="386" width="12" height="16" rx="3" fill="#CCE2F8"/>
  <text x="266" y="398" text-anchor="end" font-size="11" font-weight="500" fill="#5A5A56">0.03</text>

  <text x="60" y="422" font-size="11" fill="#5A5A56">10+ errors</text>
  <rect x="132" y="410" width="100" height="16" rx="3" fill="#E8E8E4"/>
  <rect x="132" y="410" width="4" height="16" rx="2" fill="#DAE9FA"/>
  <text x="266" y="422" text-anchor="end" font-size="11" font-weight="500" fill="#5A5A56">0.01</text>

  <text x="60" y="464" font-size="10" fill="#8E8E88" font-style="italic">Graduated credit based on error count</text>

  <!-- ═══ STAGE 2: COMPILATION ═══ -->
  <rect x="296" y="180" width="240" height="310" rx="10" fill="#fff" stroke="#E0E0DC" stroke-width="0.75"/>
  <rect x="296" y="180" width="240" height="4" rx="2" fill="#1D9E75"/>
  <text x="316" y="210" font-size="11" fill="#73726c" font-weight="500" letter-spacing="0.5">STAGE 2</text>
  <text x="316" y="232" font-size="16" font-weight="600" fill="#1a1a1a">Compilation</text>
  <text x="316" y="250" font-size="12" fill="#73726c">Max score: 0.10</text>

  <text x="316" y="278" font-size="11" fill="#5A5A56">Compiled OK</text>
  <rect x="400" y="266" width="90" height="16" rx="3" fill="#E8E8E4"/>
  <rect x="400" y="266" width="90" height="16" rx="3" fill="#1D9E75"/>
  <text x="522" y="278" text-anchor="end" font-size="11" font-weight="600" fill="#1a1a1a">0.10</text>

  <text x="316" y="302" font-size="11" fill="#5A5A56">Type-checked</text>
  <text x="316" y="313" font-size="9" fill="#8E8E88">but failed compile</text>
  <rect x="400" y="294" width="90" height="16" rx="3" fill="#E8E8E4"/>
  <rect x="400" y="294" width="45" height="16" rx="3" fill="#3BB893"/>
  <text x="522" y="306" text-anchor="end" font-size="11" font-weight="500" fill="#5A5A56">0.05</text>

  <text x="316" y="342" font-size="11" fill="#5A5A56">Partial progress</text>
  <rect x="400" y="330" width="90" height="16" rx="3" fill="#E8E8E4"/>
  <rect x="400" y="330" width="27" height="16" rx="3" fill="#6DCFAA"/>
  <text x="522" y="342" text-anchor="end" font-size="11" font-weight="500" fill="#5A5A56">0.03</text>

  <text x="316" y="370" font-size="11" fill="#5A5A56">Minimal progress</text>
  <rect x="400" y="358" width="90" height="16" rx="3" fill="#E8E8E4"/>
  <rect x="400" y="358" width="9" height="16" rx="3" fill="#9FE1CB"/>
  <text x="522" y="370" text-anchor="end" font-size="11" font-weight="500" fill="#5A5A56">0.01</text>

  <text x="316" y="398" font-size="11" fill="#5A5A56">Total failure</text>
  <rect x="400" y="386" width="90" height="16" rx="3" fill="#E8E8E4"/>
  <text x="522" y="398" text-anchor="end" font-size="11" font-weight="500" fill="#8E8E88">0.00</text>

  <text x="316" y="464" font-size="10" fill="#8E8E88" font-style="italic">Full credit on success, partial fallback</text>

  <!-- ═══ STAGE 3: TESTS ═══ -->
  <rect x="552" y="180" width="228" height="310" rx="10" fill="#fff" stroke="#E0E0DC" stroke-width="0.75"/>
  <rect x="552" y="180" width="228" height="4" rx="2" fill="#7F77DD"/>
  <text x="572" y="210" font-size="11" fill="#73726c" font-weight="500" letter-spacing="0.5">STAGE 3</text>
  <text x="572" y="232" font-size="16" font-weight="600" fill="#1a1a1a">Tests</text>
  <text x="572" y="250" font-size="12" fill="#73726c">Max score: 0.65</text>

  <text x="572" y="278" font-size="11" fill="#5A5A56">100% passed</text>
  <rect x="646" y="266" width="90" height="16" rx="3" fill="#E8E8E4"/>
  <rect x="646" y="266" width="90" height="16" rx="3" fill="#7F77DD"/>
  <text x="766" y="278" text-anchor="end" font-size="11" font-weight="600" fill="#1a1a1a">0.65</text>

  <text x="572" y="302" font-size="11" fill="#5A5A56">80% passed</text>
  <rect x="646" y="290" width="90" height="16" rx="3" fill="#E8E8E4"/>
  <rect x="646" y="290" width="72" height="16" rx="3" fill="#9B94E6"/>
  <text x="766" y="302" text-anchor="end" font-size="11" font-weight="500" fill="#5A5A56">0.52</text>

  <text x="572" y="326" font-size="11" fill="#5A5A56">60% passed</text>
  <rect x="646" y="314" width="90" height="16" rx="3" fill="#E8E8E4"/>
  <rect x="646" y="314" width="54" height="16" rx="3" fill="#AFA9EC"/>
  <text x="766" y="326" text-anchor="end" font-size="11" font-weight="500" fill="#5A5A56">0.39</text>

  <text x="572" y="350" font-size="11" fill="#5A5A56">40% passed</text>
  <rect x="646" y="338" width="90" height="16" rx="3" fill="#E8E8E4"/>
  <rect x="646" y="338" width="36" height="16" rx="3" fill="#CECBF6"/>
  <text x="766" y="350" text-anchor="end" font-size="11" font-weight="500" fill="#5A5A56">0.26</text>

  <text x="572" y="374" font-size="11" fill="#5A5A56">20% passed</text>
  <rect x="646" y="362" width="90" height="16" rx="3" fill="#E8E8E4"/>
  <rect x="646" y="362" width="18" height="16" rx="3" fill="#DEDAF7"/>
  <text x="766" y="374" text-anchor="end" font-size="11" font-weight="500" fill="#5A5A56">0.13</text>

  <text x="572" y="398" font-size="11" fill="#5A5A56">0% passed</text>
  <rect x="646" y="386" width="90" height="16" rx="3" fill="#E8E8E4"/>
  <text x="766" y="398" text-anchor="end" font-size="11" font-weight="500" fill="#8E8E88">0.00</text>

  <!-- Formula -->
  <rect x="572" y="430" width="188" height="36" rx="6" fill="#F4F3FF" stroke="#CECBF6" stroke-width="0.5"/>
  <text x="666" y="453" text-anchor="middle" font-size="12" fill="#534AB7" font-weight="500">0.65 × passed / total</text>

  <!-- ═══ STYLE PENALTIES ═══ -->
  <rect x="40" y="516" width="366" height="244" rx="10" fill="#fff" stroke="#E0E0DC" stroke-width="0.75"/>
  <rect x="40" y="516" width="366" height="4" rx="2" fill="#C4822A"/>

  <text x="60" y="546" font-size="11" fill="#73726c" font-weight="500" letter-spacing="0.5">STYLE PENALTIES</text>

  <text x="60" y="572" font-size="14" font-weight="600" fill="#1a1a1a">Verbose but correct solutions</text>

  <!-- Penalty item 1 -->
  <rect x="56" y="590" width="334" height="56" rx="8" fill="#FDFAF3" stroke="#EDD9A8" stroke-width="0.5"/>
  <text x="72" y="612" font-size="13" font-weight="500" fill="#1a1a1a">Extra code blocks</text>
  <rect x="298" y="600" width="80" height="20" rx="10" fill="#FFF3DE"/>
  <text x="338" y="614" text-anchor="middle" font-size="11" font-weight="600" fill="#85500B">−0.02 / blk</text>
  <text x="72" y="632" font-size="11" fill="#8E8E88">Per additional block beyond the first code fence</text>

  <!-- Penalty item 2 -->
  <rect x="56" y="656" width="334" height="56" rx="8" fill="#FDFAF3" stroke="#EDD9A8" stroke-width="0.5"/>
  <text x="72" y="678" font-size="13" font-weight="500" fill="#1a1a1a">Trailing prose</text>
  <rect x="330" y="666" width="48" height="20" rx="10" fill="#FFF3DE"/>
  <text x="354" y="680" text-anchor="middle" font-size="11" font-weight="600" fill="#85500B">−0.03</text>
  <text x="72" y="698" font-size="11" fill="#8E8E88">&gt;30 characters of text after the final code fence</text>

  <!-- Combined cap -->
  <line x1="56" y1="722" x2="390" y2="722" stroke="#EDD9A8" stroke-width="0.5" stroke-dasharray="3 3"/>
  <text x="60" y="741" font-size="11" fill="#8E8E88">Combined style penalty capped at</text>
  <rect x="272" y="729" width="56" height="20" rx="10" fill="#FFF3DE" stroke="#EAC37A" stroke-width="0.5"/>
  <text x="300" y="743" text-anchor="middle" font-size="11" font-weight="600" fill="#85500B">−0.10</text>

  <!-- ═══ DEGENERATE DETECTION ═══ -->
  <rect x="422" y="516" width="358" height="482" rx="10" fill="#fff" stroke="#E0E0DC" stroke-width="0.75"/>
  <rect x="422" y="516" width="358" height="4" rx="2" fill="#C93B3B"/>

  <text x="442" y="546" font-size="11" fill="#73726c" font-weight="500" letter-spacing="0.5">DEGENERATE DETECTION</text>
  <rect x="594" y="534" width="100" height="18" rx="9" fill="#FEEEEE" stroke="#F0AAAA" stroke-width="0.5"/>
  <text x="644" y="546" text-anchor="middle" font-size="10" font-weight="600" fill="#A32D2D">reward → 0.00</text>

  <text x="442" y="572" font-size="14" font-weight="600" fill="#1a1a1a">Low-quality completion filters</text>

  <!-- Degen item 1 -->
  <rect x="438" y="590" width="326" height="76" rx="8" fill="#FEF5F5" stroke="#F0C4C4" stroke-width="0.5"/>
  <circle cx="456" cy="608" r="4" fill="#C93B3B"/>
  <text x="468" y="612" font-size="13" font-weight="500" fill="#1a1a1a">Repetitive content</text>
  <rect x="700" y="600" width="52" height="18" rx="9" fill="#FEEEEE"/>
  <text x="726" y="612" text-anchor="middle" font-size="10" font-weight="600" fill="#A32D2D">× 0.00</text>
  <text x="468" y="632" font-size="11" fill="#8E8E88">Output contains repeated phrases, loops, or</text>
  <text x="468" y="646" font-size="11" fill="#8E8E88">near-duplicate blocks of text</text>

  <!-- Degen item 2 -->
  <rect x="438" y="676" width="326" height="76" rx="8" fill="#FEF5F5" stroke="#F0C4C4" stroke-width="0.5"/>
  <circle cx="456" cy="694" r="4" fill="#C93B3B"/>
  <text x="468" y="698" font-size="13" font-weight="500" fill="#1a1a1a">Low code ratio</text>
  <rect x="700" y="686" width="52" height="18" rx="9" fill="#FEEEEE"/>
  <text x="726" y="698" text-anchor="middle" font-size="10" font-weight="600" fill="#A32D2D">× 0.00</text>
  <text x="468" y="718" font-size="11" fill="#8E8E88">Prose-heavy completion with very little actual</text>
  <text x="468" y="732" font-size="11" fill="#8E8E88">OCaml code relative to total output length</text>

  <!-- Degen item 3 -->
  <rect x="438" y="762" width="326" height="76" rx="8" fill="#FEF5F5" stroke="#F0C4C4" stroke-width="0.5"/>
  <circle cx="456" cy="780" r="4" fill="#C93B3B"/>
  <text x="468" y="784" font-size="13" font-weight="500" fill="#1a1a1a">Code block spam</text>
  <rect x="700" y="772" width="52" height="18" rx="9" fill="#FEEEEE"/>
  <text x="726" y="784" text-anchor="middle" font-size="10" font-weight="600" fill="#A32D2D">× 0.00</text>
  <text x="468" y="804" font-size="11" fill="#8E8E88">Excessive number of small, disjointed code</text>
  <text x="468" y="818" font-size="11" fill="#8E8E88">fences instead of a single coherent block</text>

  <!-- Degen item 4 -->
  <rect x="438" y="848" width="326" height="76" rx="8" fill="#FEF5F5" stroke="#F0C4C4" stroke-width="0.5"/>
  <circle cx="456" cy="866" r="4" fill="#C93B3B"/>
  <text x="468" y="870" font-size="13" font-weight="500" fill="#1a1a1a">Stub solution</text>
  <rect x="700" y="858" width="52" height="18" rx="9" fill="#FEEEEE"/>
  <text x="726" y="870" text-anchor="middle" font-size="10" font-weight="600" fill="#A32D2D">× 0.00</text>
  <text x="468" y="890" font-size="11" fill="#8E8E88">Placeholder or skeleton code such as</text>
  <text x="468" y="904" font-size="11" fill="#8E8E88" font-family="'SF Mono', 'Fira Code', Menlo, monospace">failwith "todo"</text>
  <text x="580" y="904" font-size="11" fill="#8E8E88">, empty function bodies</text>

  <!-- No issues row -->
  <rect x="438" y="932" width="326" height="36" rx="8" fill="#EDFAF3" stroke="#9FE1CB" stroke-width="0.5"/>
  <circle cx="456" cy="950" r="4" fill="#1D9E75"/>
  <text x="468" y="954" font-size="13" font-weight="500" fill="#1a1a1a">No issues detected</text>
  <rect x="700" y="942" width="52" height="18" rx="9" fill="#E1F5EE"/>
  <text x="726" y="954" text-anchor="middle" font-size="10" font-weight="600" fill="#0F6E56">× 1.00</text>

  <!-- ═══ FORMULA BAR ═══ -->
  <rect x="40" y="776" width="366" height="86" rx="10" fill="#F6F6F3" stroke="#E0E0DC" stroke-width="0.75"/>
  <text x="223" y="800" text-anchor="middle" font-size="11" fill="#73726c" font-weight="500">REWARD FORMULA</text>
  <text x="66" y="824" font-size="13" fill="#1a1a1a" font-weight="600">Reward</text>
  <text x="117" y="824" font-size="13" fill="#1a1a1a" font-weight="400">=</text>
  <text x="130" y="824" font-size="13" fill="#1a1a1a" font-weight="400">(</text>
  <text x="138" y="824" font-size="13" fill="#1a1a1a">
    <tspan font-weight="600" fill="#378ADD">Type Check</tspan>
    <tspan font-weight="400"> + </tspan>
    <tspan font-weight="600" fill="#1D9E75">Compilation</tspan>
    <tspan font-weight="400"> + </tspan>
    <tspan font-weight="600" fill="#7F77DD">Tests</tspan>
  </text>
  <text x="138" y="846" font-size="13" fill="#1a1a1a">
    <tspan font-weight="400">− </tspan>
    <tspan font-weight="600" fill="#C4822A">Style Penalty</tspan>
    <tspan font-weight="400">) × </tspan>
    <tspan font-weight="600" fill="#C93B3B">Degenerate Penalty</tspan>
  </text>

  <!-- ═══ EXAMPLE SCENARIOS ═══ -->
  <rect x="40" y="878" width="366" height="120" rx="10" fill="#fff" stroke="#E0E0DC" stroke-width="0.75"/>
  <text x="60" y="904" font-size="11" fill="#73726c" font-weight="500" letter-spacing="0.5">EXAMPLE SCENARIOS</text>

  <!-- Perfect -->
  <circle cx="60" cy="926" r="5" fill="#1D9E75"/>
  <text x="74" y="930" font-size="12" fill="#1a1a1a">Perfect solution, no penalties</text>
  <text x="390" y="930" text-anchor="end" font-size="13" font-weight="600" fill="#1D9E75">1.00</text>

  <!-- Partial -->
  <circle cx="60" cy="948" r="5" fill="#C4822A"/>
  <text x="74" y="952" font-size="12" fill="#1a1a1a">1 type error, compiled, 80% tests, 1 extra block</text>
  <text x="390" y="952" text-anchor="end" font-size="13" font-weight="600" fill="#C4822A">0.80</text>

  <!-- Struggling -->
  <circle cx="60" cy="970" r="5" fill="#C93B3B"/>
  <text x="74" y="974" font-size="12" fill="#1a1a1a">5 errors, not compiled, 0 tests</text>
  <text x="390" y="974" text-anchor="end" font-size="13" font-weight="600" fill="#C93B3B">0.07</text>

  <!-- Source -->
  <text x="410" y="1016" font-size="10" fill="#AEAEA8" text-anchor="middle">github.com/nilenso/grpo-trainer</text>

</svg>
