<svg width="32" height="32" viewBox="0 0 32 32" fill="none" xmlns="http://www.w3.org/2000/svg">
<g clip-path="url(#clip0_1308_364)">
<path d="M30 0H2C0.895431 0 0 0.895431 0 2V30C0 31.1046 0.895431 32 2 32H30C31.1046 32 32 31.1046 32 30V2C32 0.895431 31.1046 0 30 0Z" fill="#FF3D84"/>
<path d="M20.7988 11.1759C16.462 6.83911 10.6917 4.45068 4.55078 4.45068V8.969C9.48478 8.969 14.1205 10.8874 17.604 14.3709C21.0873 17.8543 23.0058 22.49 23.0058 27.424H27.5241C27.5241 21.2831 25.1356 15.5127 20.7988 11.1759Z" fill="white"/>
<path d="M4.50391 12.0967V16.615C10.464 16.615 15.3129 21.4639 15.3129 27.4241H19.8313C19.8313 18.9725 12.9555 12.0967 4.50391 12.0967Z" fill="white"/>
<path d="M7.71272 27.5495C9.5 27.5495 10.9489 26.1006 10.9489 24.3133C10.9489 22.526 9.5 21.0771 7.71272 21.0771C5.92544 21.0771 4.47656 22.526 4.47656 24.3133C4.47656 26.1006 5.92544 27.5495 7.71272 27.5495Z" fill="white"/>
</g>
<defs>
<clipPath id="clip0_1308_364">
<rect width="32" height="32" fill="white"/>
</clipPath>
</defs>
</svg>
